<svg width="80" height="80" viewBox="0 0 80 80" fill="none" xmlns="http://www.w3.org/2000/svg">
<path d="M76.8087 73.1406H72.5892C72.1603 73.1406 71.8125 73.488 71.8125 73.9173C71.8125 74.3466 72.1603 74.694 72.5892 74.694H76.8087C77.2376 74.694 77.5854 74.3466 77.5854 73.9173C77.5854 73.488 77.2376 73.1406 76.8087 73.1406Z" fill="#161616"/>
<path d="M3.34766 21.0275V36.8346C3.34766 38.6383 4.81459 40.1052 6.61791 40.1052H19.796V68.7839C19.796 70.5093 20.5436 72.0593 21.7265 73.1407H8.59455C8.16562 73.1407 7.81785 73.4881 7.81785 73.9174C7.81785 74.3467 8.16562 74.6941 8.59455 74.6941H69.9098C70.3387 74.6941 70.6865 74.3467 70.6865 73.9174C70.6865 73.4881 70.3387 73.1407 69.9098 73.1407H63.8929C65.0758 72.0593 65.8234 70.5093 65.8234 68.7839V61.4827L73.832 61.4735C74.5855 61.4728 75.294 61.1777 75.8264 60.6445C76.3585 60.1105 76.6513 59.4013 76.6501 58.6481L76.627 40.1014C76.6259 39.3475 76.3316 38.639 75.798 38.1066C75.2651 37.5756 74.5578 37.2828 73.8058 37.2828C73.8046 37.2828 73.8031 37.2828 73.802 37.2828L65.8234 37.292V11.2202C65.8234 7.95866 63.1721 5.30469 59.9132 5.30469H25.7062C22.4473 5.30469 19.796 7.95866 19.796 11.2202V17.7577H6.61791C4.81459 17.7577 3.34766 19.2246 3.34766 21.0275ZM64.27 68.7839C64.27 71.1861 62.3153 73.1407 59.9132 73.1407H25.7062C23.3037 73.1407 21.3494 71.1861 21.3494 68.7839V40.1052H23.7986V62.8358C23.7986 64.2504 24.9492 65.401 26.3638 65.401H59.2556C60.6702 65.401 61.8208 64.2504 61.8208 62.8358V61.4873L64.27 61.4845V68.7839ZM33.1569 17.7577H25.352V12.2813C25.352 11.7208 25.8082 11.2642 26.3691 11.2642H33.2161C33.6734 11.2642 34.0925 11.5137 34.3098 11.9165L34.7861 12.7986C35.275 13.7035 36.2182 14.2663 37.2471 14.2663H48.367C49.3959 14.2663 50.3391 13.7035 50.8279 12.7986L51.3043 11.9165C51.5216 11.5137 51.9406 11.2642 52.3984 11.2642H59.2556C59.8134 11.2642 60.2674 11.7178 60.2674 12.276V37.2983L39.4084 37.3223C37.8501 37.3238 36.5879 38.5883 36.5902 40.1477L36.6134 58.6944C36.6157 60.2542 37.8779 61.513 39.435 61.513C39.5543 61.513 60.1518 61.4893 60.2674 61.4891V62.8358C60.2674 63.394 59.8134 63.8476 59.2556 63.8476H26.3638C25.8059 63.8476 25.352 63.394 25.352 62.8358V40.1052H25.5534C25.765 40.1052 25.9698 40.1803 26.131 40.3176L29.9541 43.5624C30.3365 43.8882 30.8681 43.9766 31.3528 43.7543C31.8219 43.5382 32.1143 43.0823 32.1155 42.565L32.1746 40.1052H33.1569C34.9602 40.1052 36.4275 38.6383 36.4275 36.8346V21.0275C36.4275 19.2246 34.9602 17.7577 33.1569 17.7577ZM73.8039 38.8362H73.8054C74.1437 38.8362 74.4615 38.9675 74.7008 39.2064C74.9409 39.4461 75.0732 39.7646 75.0736 40.1029L75.0967 58.6497C75.0971 58.9887 74.9655 59.3073 74.7266 59.5477C74.4873 59.7874 74.1687 59.9194 73.8301 59.9201C73.7392 59.9202 39.3574 59.9596 39.4353 59.9596C38.7306 59.9596 38.1675 59.3888 38.1668 58.6929L38.1436 40.1462C38.1432 39.8071 38.2748 39.4885 38.5141 39.2489C38.7534 39.0084 39.0716 38.8764 39.4103 38.8757L73.8039 38.8362ZM21.3494 11.2202C21.3494 8.815 23.3037 6.85809 25.7062 6.85809H59.9132C62.3153 6.85809 64.27 8.815 64.27 11.2202V37.2938L61.8208 37.2966V12.276C61.8208 10.8614 60.6702 9.71079 59.2556 9.71079H52.3984C51.3691 9.71079 50.4263 10.2728 49.9375 11.1777L49.4611 12.0598C49.2438 12.4626 48.8244 12.7129 48.367 12.7129H37.2471C36.7897 12.7129 36.3703 12.4626 36.153 12.0598L35.6766 11.1777C35.1878 10.2728 34.245 9.71079 33.2161 9.71079H26.3691C24.9519 9.71079 23.7986 10.8637 23.7986 12.2813V17.7577H21.3494V11.2202ZM33.1569 19.3111C34.1039 19.3111 34.8741 20.0809 34.8741 21.0275V36.8346C34.8741 37.7812 34.1039 38.5518 33.1569 38.5518H32.1746C31.2895 38.5518 30.5681 39.2716 30.5666 40.156L30.5632 42.0424L27.1367 39.1336C26.6953 38.7581 26.1332 38.5518 25.5534 38.5518H6.61791C5.67131 38.5518 4.90105 37.7812 4.90105 36.8346V21.0275C4.90105 20.0809 5.67131 19.3111 6.61791 19.3111H33.1569Z" fill="#161616"/>
<path d="M3.19076 74.694H5.58192C6.01085 74.694 6.35862 74.3466 6.35862 73.9173C6.35862 73.488 6.01085 73.1406 5.58192 73.1406H3.19076C2.76183 73.1406 2.41406 73.488 2.41406 73.9173C2.41406 74.3466 2.76183 74.694 3.19076 74.694Z" fill="#161616"/>
<path d="M40.4447 10.5612H47.1642C47.5931 10.5612 47.9409 10.2138 47.9409 9.78451C47.9409 9.3552 47.5931 9.00781 47.1642 9.00781H40.4447C40.0157 9.00781 39.668 9.3552 39.668 9.78451C39.668 10.2138 40.0157 10.5612 40.4447 10.5612Z" fill="#161616"/>
<path d="M38.157 10.503C38.2503 10.5417 38.3512 10.5576 38.4525 10.5576C38.5609 10.5576 38.6542 10.5417 38.7551 10.503C38.8484 10.4643 38.9337 10.4097 39.0039 10.3323C39.1514 10.1844 39.2292 9.99025 39.2292 9.78849C39.2292 9.57839 39.1514 9.37663 39.0039 9.23707C38.9337 9.16729 38.8484 9.10509 38.7551 9.06641C38.5609 8.98828 38.3436 8.98828 38.157 9.06641C38.0641 9.10509 37.9784 9.16729 37.9007 9.23707C37.7611 9.37663 37.6758 9.57839 37.6758 9.78849C37.6758 9.99025 37.7611 10.1844 37.9007 10.3323C37.9784 10.4097 38.0641 10.4643 38.157 10.503Z" fill="#161616"/>
<path d="M42.8064 66.2383C41.1362 66.2383 39.7773 67.5975 39.7773 69.2677C39.7773 70.9417 41.1362 72.304 42.8064 72.304C44.4808 72.304 45.8427 70.9417 45.8427 69.2677C45.8427 67.5975 44.4808 66.2383 42.8064 66.2383ZM42.8064 70.7506C41.9929 70.7506 41.3307 70.0854 41.3307 69.2677C41.3307 68.4538 41.9929 67.7917 42.8064 67.7917C43.6241 67.7917 44.2893 68.4538 44.2893 69.2677C44.2893 70.0854 43.6241 70.7506 42.8064 70.7506Z" fill="#161616"/>
<path d="M40.8529 55.6124H40.8555C41.6057 55.6124 42.2159 56.2222 42.217 56.9724C42.2174 57.4009 42.5652 57.7483 42.9937 57.7483C43.1224 57.7483 70.1615 57.7173 70.2665 57.7172C70.4728 57.7172 70.6701 57.6345 70.8157 57.4889C70.9613 57.3433 71.0429 57.1453 71.0425 56.9397C71.0413 56.1888 71.6515 55.5775 72.4021 55.5767C72.831 55.576 73.178 55.2278 73.1776 54.7993L73.164 43.9619C73.1636 43.7556 73.0817 43.5584 72.9357 43.4127C72.79 43.2679 72.5928 43.1859 72.3873 43.1859C72.3865 43.1859 72.3854 43.1859 72.3846 43.1859C72.0217 43.1859 71.6804 43.0449 71.4232 42.7885C71.1657 42.5314 71.0239 42.19 71.0235 41.8267C71.0231 41.6204 70.9412 41.4232 70.7956 41.2776C70.65 41.1327 70.4524 41.0508 70.2468 41.0508L42.974 41.0811C42.7677 41.0811 42.5705 41.1638 42.4248 41.3094C42.2792 41.4551 42.1977 41.653 42.198 41.8586C42.1992 42.6095 41.589 43.2208 40.8381 43.2216C40.4091 43.2224 40.0621 43.5705 40.0625 43.9991L40.0762 54.8364C40.077 55.2656 40.4251 55.6124 40.8529 55.6124ZM43.6483 42.6338L69.5752 42.6049C69.7079 43.0858 69.9635 43.5265 70.3261 43.8883C70.689 44.2501 71.1301 44.505 71.6113 44.6362L71.6235 54.1295C70.6397 54.4026 69.8642 55.18 69.593 56.1646L43.6646 56.1941C43.3908 55.2104 42.6133 54.4344 41.6288 54.1629L41.6167 44.6703C42.5856 44.4029 43.3755 43.6307 43.6483 42.6338Z" fill="#161616"/>
<path d="M55.1446 49.5946C55.4177 49.7071 55.7565 49.8132 56.1512 49.9095L56.1849 49.9179L56.193 51.8404L56.1459 51.8376C55.7611 51.8116 55.3818 51.7335 55.0234 51.607C54.9253 51.569 54.8357 51.5501 54.7591 51.5501C54.5644 51.5613 54.454 51.6527 54.3735 51.7441C54.272 51.8607 54.221 51.9964 54.2221 52.1468C54.2231 52.421 54.3651 52.622 54.6206 52.712C55.0947 52.8835 55.6117 52.9875 56.1564 53.0212L56.1979 53.024L56.2 53.5751C56.2007 53.6904 56.2422 53.7923 56.3216 53.8717C56.3958 53.9441 56.503 53.9863 56.6175 53.9863C56.7349 53.9849 56.8424 53.9399 56.9138 53.8619C56.9851 53.7831 57.0224 53.6826 57.0217 53.5716L57.0196 53.0058L57.0586 53.0016C57.4694 52.9559 57.8328 52.8497 58.1393 52.6859C58.5065 52.4905 58.7891 52.2298 58.9789 51.9114C59.1673 51.5937 59.2618 51.2401 59.2604 50.8619C59.2583 50.4191 59.1346 50.0536 58.8928 49.7746C58.6626 49.5075 58.3765 49.3008 58.0433 49.1603C57.7703 49.045 57.4308 48.9318 57.034 48.8242L57.0016 48.8151L56.9943 46.9778L57.0414 46.9813C57.5612 47.0186 58.0395 47.1324 58.4637 47.3201C58.6875 47.4171 58.9859 47.3679 59.1469 47.1964C59.2544 47.0839 59.3106 46.9412 59.3103 46.7831C59.31 46.6551 59.2699 46.5398 59.1929 46.4401C59.1213 46.3466 59.0295 46.2763 58.9227 46.232C58.3368 45.9804 57.7 45.8279 57.0298 45.7779L56.9894 45.7744L56.9869 45.2121C56.9862 45.0961 56.9451 44.9949 56.8706 44.9225C56.7975 44.848 56.6984 44.8086 56.5834 44.8086C56.4604 44.8073 56.3663 44.8466 56.2886 44.9183C56.2074 44.9942 56.1645 45.0968 56.1652 45.2156L56.1677 45.7814L56.1287 45.7864C55.7396 45.8314 55.3903 45.9304 55.0901 46.0795C54.7236 46.2615 54.4354 46.5047 54.2336 46.8035C54.0277 47.1078 53.9244 47.4564 53.9258 47.8395C53.9279 48.3055 54.0509 48.6872 54.292 48.9733C54.5236 49.2481 54.8104 49.4569 55.1446 49.5946ZM57.0649 50.1394C57.3486 50.2258 57.5766 50.3236 57.7415 50.429C57.92 50.5442 58.0075 50.7094 58.0082 50.9343C58.0092 51.1811 57.9137 51.3666 57.7063 51.5198C57.5394 51.645 57.3243 51.7349 57.067 51.7876L57.0143 51.7982L57.0073 50.1218L57.0649 50.1394ZM56.1223 47.0101L56.1726 47.0024L56.1793 48.6064L56.1223 48.5888C55.8317 48.5002 55.6005 48.4054 55.4352 48.3077C55.2585 48.2022 55.1791 48.0736 55.1784 47.8915C55.1763 47.3981 55.4848 47.1092 56.1223 47.0101Z" fill="#161616"/>
<path d="M65.847 52.3798H65.8527C66.6525 52.3791 67.4034 52.0666 67.9677 51.5015C68.532 50.9356 68.8423 50.1832 68.8411 49.3838C68.8392 47.7348 67.4971 46.3945 65.8481 46.3945C65.847 46.3945 65.8458 46.3945 65.8443 46.3945C65.0445 46.3953 64.2932 46.7078 63.7289 47.2729C63.1646 47.8387 62.8543 48.5911 62.8555 49.3906C62.8566 50.1908 63.1687 50.9425 63.7342 51.5068C64.2989 52.0696 65.049 52.3798 65.847 52.3798ZM64.8287 48.3704C65.0999 48.0981 65.4613 47.9487 65.8466 47.9479H65.8481C66.2327 47.9479 66.5937 48.0974 66.8653 48.3681C67.1372 48.6389 67.2874 49.0007 67.2877 49.3853C67.2881 49.7706 67.1391 50.1324 66.8679 50.4039C66.5967 50.6762 66.2353 50.8257 65.85 50.8264C65.8496 50.8257 65.8477 50.8257 65.847 50.8264C65.4632 50.8264 65.1025 50.6778 64.8314 50.407C64.5594 50.1354 64.4092 49.7736 64.4089 49.3883C64.4081 49.0038 64.5572 48.642 64.8287 48.3704Z" fill="#161616"/>
<path d="M47.3899 52.3798H47.3956C48.1955 52.3791 48.9464 52.0666 49.5107 51.5015C50.075 50.9356 50.3852 50.1832 50.3841 49.3838C50.3822 47.7348 49.0401 46.3945 47.3911 46.3945C47.3899 46.3945 47.3888 46.3945 47.3873 46.3945C45.7331 46.3961 44.3961 47.7352 44.3984 49.3906C44.3996 50.1908 44.7117 50.9425 45.2772 51.5068C45.8419 52.0696 46.592 52.3798 47.3899 52.3798ZM47.3896 47.9479H47.3911C47.7756 47.9479 48.1367 48.0974 48.4082 48.3681C48.6801 48.6389 48.8303 49.0007 48.8307 49.3853C48.8311 49.7706 48.682 50.1324 48.4109 50.4039C48.1397 50.6762 47.7783 50.8257 47.393 50.8264C47.393 50.8257 47.3907 50.8257 47.3899 50.8264C47.0061 50.8264 46.6455 50.6778 46.3743 50.407C46.1024 50.1354 45.9522 49.7736 45.9518 49.3883C45.9503 48.5956 46.589 47.9495 47.3896 47.9479Z" fill="#161616"/>
<path d="M8.78451 24.319H30.9906C31.4195 24.319 31.7673 23.9716 31.7673 23.5423C31.7673 23.113 31.4195 22.7656 30.9906 22.7656H8.78451C8.35558 22.7656 8.00781 23.113 8.00781 23.5423C8.00781 23.9716 8.35558 24.319 8.78451 24.319Z" fill="#161616"/>
<path d="M8.78451 29.7096H30.9906C31.4195 29.7096 31.7673 29.3623 31.7673 28.9329C31.7673 28.5036 31.4195 28.1562 30.9906 28.1562H8.78451C8.35558 28.1562 8.00781 28.5036 8.00781 28.9329C8.00781 29.3623 8.35558 29.7096 8.78451 29.7096Z" fill="#161616"/>
<path d="M8.78451 35.0964H30.9906C31.4195 35.0964 31.7673 34.749 31.7673 34.3197C31.7673 33.8904 31.4195 33.543 30.9906 33.543H8.78451C8.35558 33.543 8.00781 33.8904 8.00781 34.3197C8.00781 34.749 8.35558 35.0964 8.78451 35.0964Z" fill="#161616"/>
</svg>
