<svg width="80" height="80" viewBox="0 0 80 80" fill="none" xmlns="http://www.w3.org/2000/svg">
<path d="M76.8097 72.9375H69.9408C69.5115 72.9375 69.1641 73.2849 69.1641 73.7142C69.1641 74.1435 69.5115 74.4909 69.9408 74.4909H76.8097C77.239 74.4909 77.5864 74.1435 77.5864 73.7142C77.5864 73.2849 77.239 72.9375 76.8097 72.9375Z" fill="#161616"/>
<path d="M3.19076 74.4909H6.96655C7.39548 74.4909 7.74325 74.1435 7.74325 73.7142C7.74325 73.2849 7.39548 72.9375 6.96655 72.9375H3.19076C2.76183 72.9375 2.41406 73.2849 2.41406 73.7142C2.41406 74.1435 2.76183 74.4909 3.19076 74.4909Z" fill="#161616"/>
<path d="M69.2052 27.3161C69.2052 25.052 67.3636 23.2103 65.0995 23.2103H58.9178C58.9178 19.0068 58.9178 15.3037 58.9178 11.1002C58.9178 8.01691 56.4087 5.50781 53.3254 5.50781H16.3821C13.2985 5.50781 10.7897 8.01691 10.7897 11.1002V68.8998C10.7897 70.4876 11.4583 71.9197 12.5248 72.9388H10.1829C9.75402 72.9388 9.40625 73.2862 9.40625 73.7155C9.40625 74.1448 9.75402 74.4922 10.1829 74.4922H66.7864C67.2157 74.4922 67.5631 74.1448 67.5631 73.7155C67.5631 73.2862 67.2157 72.9388 66.7864 72.9388H57.1826C58.2492 71.9197 58.9178 70.4876 58.9178 68.8998C58.9178 68.6683 58.9178 57.1676 58.9178 56.7897H65.0995C67.3636 56.7897 69.2052 54.9473 69.2052 52.6832C69.2052 43.7571 69.2052 36.6667 69.2052 27.3161ZM12.3431 11.1002C12.3431 8.87326 14.1552 7.06121 16.3821 7.06121H53.3254C55.5523 7.06121 57.3644 8.87326 57.3644 11.1002V14.8942H12.3431V11.1002ZM57.3644 68.8998C57.3644 71.1267 55.5523 72.9388 53.3254 72.9388H16.3821C14.1552 72.9388 12.3431 71.1267 12.3431 68.8998V65.1058H57.3644V68.8998ZM57.3644 63.5524H12.3431V16.4476H57.3644V23.2103H35.6305V21.7419C35.6305 21.3126 35.2827 20.9652 34.8538 20.9652C34.4248 20.9652 34.0771 21.3126 34.0771 21.7419V58.2581C34.0771 58.6874 34.4248 59.0348 34.8538 59.0348C35.2827 59.0348 35.6305 58.6874 35.6305 58.2581V56.7897H57.3644C57.3644 57.0292 57.3644 63.7928 57.3644 63.5524ZM67.6519 52.6832C67.6519 54.0909 66.5065 55.2363 65.0995 55.2363H35.6305V49.6378H47.2074C47.6367 49.6378 47.9841 49.2904 47.9841 48.8611C47.9841 48.4318 47.6367 48.0844 47.2074 48.0844H35.6305V44.3632H52.912C53.3413 44.3632 53.6887 44.0159 53.6887 43.5865C53.6887 43.1572 53.3413 42.8098 52.912 42.8098H35.6305V37.4807H67.6519V52.6832ZM67.6519 35.9273H35.6305V30.3773H67.6519V35.9273ZM67.6519 28.824H35.6305V24.7637H65.0995C66.5065 24.7637 67.6519 25.9091 67.6519 27.3161V28.824Z" fill="#161616"/>
<path d="M34.8482 72.2131C36.6129 72.2131 38.0487 70.7849 38.0487 69.029C38.0487 67.264 36.6129 65.8281 34.8482 65.8281C33.0923 65.8281 31.6641 67.264 31.6641 69.029C31.6641 70.7849 33.0923 72.2131 34.8482 72.2131ZM34.8482 67.3815C35.7565 67.3815 36.4953 68.1203 36.4953 69.029C36.4953 69.9285 35.7565 70.6597 34.8482 70.6597C33.949 70.6597 33.2175 69.9285 33.2175 69.029C33.2175 68.1203 33.949 67.3815 34.8482 67.3815Z" fill="#161616"/>
<path d="M40.4047 10.1992H33.3314C32.9025 10.1992 32.5547 10.5466 32.5547 10.9759C32.5547 11.4052 32.9025 11.7526 33.3314 11.7526H40.4047C40.8337 11.7526 41.1814 11.4052 41.1814 10.9759C41.1814 10.5466 40.8337 10.1992 40.4047 10.1992Z" fill="#161616"/>
<path d="M30.4267 10.1992H29.3079C28.879 10.1992 28.5312 10.5466 28.5312 10.9759C28.5312 11.4052 28.879 11.7526 29.3079 11.7526H30.4267C30.8557 11.7526 31.2034 11.4052 31.2034 10.9759C31.2034 10.5466 30.8557 10.1992 30.4267 10.1992Z" fill="#161616"/>
</svg>
