<svg width="80" height="80" viewBox="0 0 80 80" fill="none" xmlns="http://www.w3.org/2000/svg">
<path d="M76.8087 72.832H72.5892C72.1599 72.832 71.8125 73.1794 71.8125 73.6087C71.8125 74.038 72.1599 74.3854 72.5892 74.3854H76.8087C77.238 74.3854 77.5854 74.038 77.5854 73.6087C77.5854 73.1794 77.238 72.832 76.8087 72.832Z" fill="#161616"/>
<path d="M3.19076 74.3854H5.5823C6.01161 74.3854 6.359 74.038 6.359 73.6087C6.359 73.1794 6.01161 72.832 5.5823 72.832H3.19076C2.76145 72.832 2.41406 73.1794 2.41406 73.6087C2.41406 74.038 2.76145 74.3854 3.19076 74.3854Z" fill="#161616"/>
<path d="M22.2923 22.8659H61.8092C62.2385 22.8659 62.5859 22.5185 62.5859 22.0892C62.5859 21.6599 62.2385 21.3125 61.8092 21.3125H22.2923C21.863 21.3125 21.5156 21.6599 21.5156 22.0892C21.5156 22.5185 21.863 22.8659 22.2923 22.8659Z" fill="#161616"/>
<path d="M22.2923 13.862H61.8092C62.2385 13.862 62.5859 13.5146 62.5859 13.0853C62.5859 12.656 62.2385 12.3086 61.8092 12.3086H22.2923C21.863 12.3086 21.5156 12.656 21.5156 13.0853C21.5156 13.5146 21.863 13.862 22.2923 13.862Z" fill="#161616"/>
<path d="M43.2289 58.2283C43.2154 58.2448 43.2019 58.2615 43.1914 58.2744C43.2128 58.248 43.2352 58.2205 43.2557 58.1953C43.2474 58.2054 43.2394 58.2152 43.2289 58.2283Z" fill="#161616"/>
<path d="M68.9077 25.4075V12.2036C68.9077 8.56849 65.9485 5.61719 62.3135 5.61719H10.9737C7.76591 5.61719 5.14844 8.22679 5.14844 11.4424V23.124C5.14844 24.8947 6.58536 26.3317 8.34843 26.3317H15.2455L15.1989 70.5491C15.1989 71.403 15.4784 72.1949 15.9516 72.8316H8.59651C8.1672 72.8316 7.81981 73.179 7.81981 73.6083C7.81981 74.0376 8.1672 74.385 8.59651 74.385C11.0605 74.385 70.4284 74.385 69.9117 74.385C70.341 74.385 70.6884 74.0376 70.6884 73.6083C70.6884 73.179 70.341 72.8316 69.9117 72.8316H68.1472C68.6282 72.1949 68.9077 71.403 68.9077 70.5491V38.79L72.2242 34.7123L72.2257 34.7104L72.9215 35.277C73.1346 35.4507 73.2681 35.698 73.2962 35.9718C73.3242 36.2456 73.2438 36.5133 73.0701 36.7265L69.6463 40.9316C69.3755 41.2646 69.4255 41.7538 69.7578 42.0246C69.9019 42.1421 70.0756 42.199 70.2478 42.199C70.4738 42.199 70.6975 42.1012 70.8508 41.9131L74.2746 37.708C74.7107 37.1725 74.9117 36.4997 74.8412 35.8133C74.7707 35.1261 74.4369 34.5079 73.9022 34.0725L73.2103 33.5088L73.5057 33.1434C74.1193 32.3822 74.0028 31.2714 73.2572 30.658L74.0184 29.7335C74.5931 29.0424 74.8572 28.1726 74.7718 27.2792C74.6786 26.3861 74.2514 25.5861 73.5601 25.0191C72.1355 23.8347 70.0623 24.0602 68.9077 25.4075ZM15.2455 24.7783H8.34843C7.43971 24.7783 6.70184 24.0327 6.70184 23.124V11.4424C6.70184 9.07422 8.63093 7.17059 10.9737 7.17059C13.3498 7.17059 15.2533 9.10247 15.2533 11.4424C15.2533 24.3861 15.249 18.9235 15.2455 24.7783ZM67.3543 70.5491C67.3543 71.8037 66.3427 72.8254 65.0898 72.8316H19.0168C17.7639 72.8254 16.7523 71.8037 16.7523 70.5569C16.7524 70.4359 16.8057 12.5781 16.8067 11.4424C16.8067 9.74909 16.0844 8.22679 14.9271 7.17059H62.3135C65.0941 7.17059 67.3543 9.43071 67.3543 12.2036V26.1686C67.2067 26.1453 67.0591 26.1375 66.9038 26.1531C66.43 26.1997 66.0106 26.4326 65.7077 26.7978C65.6423 26.8782 62.4299 30.8216 62.4954 30.7412C62.3663 30.4913 62.1133 30.3157 61.8125 30.3157H22.2957C21.8664 30.3157 21.519 30.6631 21.519 31.0924C21.519 31.5217 21.8664 31.8691 22.2957 31.8691H61.5837L55.5174 39.3181H22.298C21.863 39.3181 21.5213 39.6675 21.5213 40.0948C21.5213 40.522 21.863 40.8715 22.298 40.8715H54.2592L53.9329 41.2676C53.63 41.6326 53.4902 42.0909 53.5368 42.5646C53.5523 42.7123 53.5834 42.8521 53.6378 42.9841L49.296 48.3201H22.298C21.863 48.3201 21.5213 48.6696 21.5213 49.0968C21.5213 49.5238 21.863 49.8735 22.298 49.8735H48.03L41.4669 57.9355C41.4591 57.9511 41.4436 57.9589 41.4358 57.9744C41.4047 58.0133 41.3737 58.0599 41.3504 58.1066C41.3193 58.1608 41.296 58.2308 41.2805 58.2928L41.2649 58.3705L39.7115 65.1666C39.5717 65.1666 39.4164 65.1511 39.3465 65.1122C39.0589 64.9211 38.6881 64.5179 37.9096 64.3899C37.2339 64.2657 35.0281 64.9414 34.1038 65.3297C33.6689 64.5452 32.6514 63.2871 31.8747 62.9918C31.1368 62.7046 30.4067 62.8443 29.7543 62.9609C29.5679 62.9996 29.3815 63.0385 29.1951 63.054C29.063 63.0696 28.931 63.0851 28.8067 63.0929C28.8067 63.0696 28.8145 63.0463 28.8145 63.0229C28.8689 62.4326 28.9387 61.7492 28.7679 61.0579C28.4805 59.9239 27.4863 58.9142 26.1271 59.2016C25.3737 59.3569 24.7368 59.9161 24.4727 60.6695C23.9213 62.2462 24.9854 63.7065 26.2747 64.2811C26.5154 64.3899 26.764 64.4677 27.0125 64.5297C26.8494 65.1433 26.5931 65.6794 26.1426 66.0211C25.8087 66.2773 25.3348 66.3783 24.8533 66.3006C24.3717 66.2228 23.9523 65.9667 23.7193 65.6172C23.4786 65.2599 22.997 65.1666 22.6397 65.4075C22.2824 65.6403 22.1892 66.122 22.43 66.4792C22.9038 67.1861 23.696 67.6831 24.597 67.8307C24.7912 67.8618 24.9776 67.8773 25.1718 67.8773C25.8785 67.8773 26.5543 67.6676 27.0824 67.2559C27.9368 66.6112 28.3484 65.6638 28.5737 64.6619C28.8689 64.6541 29.1407 64.6308 29.3737 64.5997C29.5912 64.5763 29.8164 64.5297 30.0416 64.4908C30.531 64.3977 30.9892 64.3122 31.3154 64.4366C31.5718 64.5452 32.3407 65.353 32.7368 66.0753C33.1096 66.7511 33.9329 67.0462 34.663 66.7589C35.8203 66.3006 37.3892 65.92 37.6455 65.92C37.8863 65.9589 38.0028 66.0522 38.2047 66.1997C38.3135 66.285 38.4222 66.3628 38.5387 66.4326C38.8882 66.6423 39.564 66.79 40.1698 66.6889C40.2242 66.6967 40.2786 66.7045 40.3329 66.7045C40.4416 66.7045 40.5504 66.6812 40.6591 66.6347L47.6183 63.4502C47.7426 63.3957 47.8436 63.3102 47.9213 63.2016L60.0921 48.2423C60.1776 48.2579 60.263 48.2657 60.3484 48.2657C60.4106 48.2657 60.465 48.2657 60.5271 48.2579C61.0009 48.2112 61.4281 47.9784 61.7232 47.6132L67.3543 40.7006V70.5491ZM43.138 58.344C43.1356 58.3468 43.1335 58.3495 43.1319 58.3516C43.1382 58.3436 43.1419 58.3392 43.1478 58.3318C43.1583 58.3189 43.1736 58.3002 43.1942 58.275C43.1914 58.2784 43.1887 58.2816 43.186 58.285C43.2024 58.2649 43.2189 58.2446 43.2317 58.2289C43.2446 58.2129 43.2577 58.1968 43.2735 58.1775C43.2689 58.1832 43.2637 58.1896 43.2586 58.1959C43.2919 58.1549 43.3088 58.1341 43.3128 58.1291C43.9277 57.3737 46.3656 54.3784 54.6786 44.1647L58.7329 47.4656L47.1834 61.6482L43.129 58.355C43.1244 58.3607 43.128 58.3563 43.138 58.344ZM45.8319 62.557L41.4436 64.5686L42.5155 59.8541L45.8319 62.557ZM27.2689 62.8754C27.2611 62.9143 27.2611 62.953 27.2611 62.9841C27.1368 62.953 27.0125 62.9065 26.9038 62.8599C26.2436 62.5646 25.6999 61.8579 25.9407 61.1898C26.0183 60.957 26.2281 60.7628 26.4456 60.7162C26.4844 60.7084 26.531 60.7084 26.5698 60.7084C27.0591 60.7084 27.2378 61.3531 27.2611 61.4384C27.3621 61.8657 27.3155 62.3784 27.2689 62.8754ZM72.3019 32.1647C72.2386 32.2425 68.6818 36.6131 68.9077 36.3355L67.3543 38.2385L60.5193 46.6347C60.4727 46.6889 60.4106 46.7045 60.3718 46.7123C60.3252 46.7123 60.2786 46.7123 60.2164 46.6734C60.2164 46.6656 60.2086 46.6656 60.2086 46.6656L55.1679 42.557C55.1057 42.5104 55.0902 42.4482 55.0825 42.4093C55.0825 42.3629 55.0825 42.3084 55.1368 42.2462C59.6605 36.691 62.2222 33.5389 66.9116 27.7762C66.9582 27.722 67.0203 27.6987 67.0591 27.6987H67.0824C67.1213 27.6987 67.1757 27.7065 67.2223 27.7453C67.301 27.8094 72.3499 31.9182 72.2708 31.8539C72.364 31.9317 72.3717 32.0716 72.3019 32.1647ZM72.5737 26.2153C73.3259 26.8262 73.4713 27.9456 72.8222 28.7471L72.0611 29.6793L69.2805 27.3879L70.0416 26.4637C70.6643 25.6974 71.7913 25.5793 72.5737 26.2153Z" fill="#161616"/>
</svg>
