<svg width="80" height="80" viewBox="0 0 80 80" fill="none" xmlns="http://www.w3.org/2000/svg">
<path d="M9.04593 5.39844C6.94641 5.39844 5.23828 7.11036 5.23828 9.21443C5.23828 11.3139 6.94641 13.0221 9.04593 13.0221C11.15 13.0221 12.8619 11.3139 12.8619 9.21443C12.8619 7.11036 11.15 5.39844 9.04593 5.39844ZM9.04593 11.4687C7.80275 11.4687 6.79168 10.4576 6.79168 9.21443C6.79168 7.9667 7.80275 6.95184 9.04593 6.95184C10.2937 6.95184 11.3085 7.9667 11.3085 9.21443C11.3085 10.4576 10.2937 11.4687 9.04593 11.4687Z" fill="#161616"/>
<path d="M76.4017 9.21443C76.4017 7.11036 74.6898 5.39844 72.5857 5.39844C70.4855 5.39844 68.7773 7.11036 68.7773 9.21443C68.7773 11.3139 70.4855 13.0221 72.5857 13.0221C74.6898 13.0221 76.4017 11.3139 76.4017 9.21443ZM70.3307 9.21443C70.3307 7.9667 71.3426 6.95184 72.5857 6.95184C73.8335 6.95184 74.8483 7.9667 74.8483 9.21443C74.8483 10.4576 73.8335 11.4687 72.5857 11.4687C71.3426 11.4687 70.3307 10.4576 70.3307 9.21443Z" fill="#161616"/>
<path d="M44.3687 57.7312L43.3902 56.5692C43.1149 56.2423 42.6242 56.1983 42.2957 56.4759C41.9681 56.752 41.9256 57.242 42.2024 57.5704L43.1809 58.7325C43.4567 59.0601 43.9477 59.1022 44.2754 58.8258C44.6031 58.5497 44.6455 58.0597 44.3687 57.7312Z" fill="#161616"/>
<path d="M45.5653 60.3587C45.2376 60.6348 45.1951 61.1248 45.472 61.4533L46.4504 62.6153C46.7262 62.9429 47.2173 62.985 47.5449 62.7086C47.8726 62.4325 47.9151 61.9425 47.6382 61.6141L46.6598 60.452C46.3844 60.1251 45.8937 60.0811 45.5653 60.3587Z" fill="#161616"/>
<path d="M48.0363 56.9674C47.7595 56.6404 47.2702 56.5972 46.9418 56.8741L45.7798 57.8533C45.4521 58.1294 45.4104 58.6194 45.6865 58.9478C45.9653 59.2774 46.4552 59.316 46.781 59.0411L47.943 58.0619C48.2707 57.7858 48.3124 57.2958 48.0363 56.9674Z" fill="#161616"/>
<path d="M43.0601 60.1442L41.8973 61.1234C41.5696 61.3995 41.5271 61.8895 41.804 62.2179C42.0798 62.5456 42.5708 62.5877 42.8985 62.3112L44.0613 61.332C44.3889 61.0559 44.4314 60.5659 44.1546 60.2375C43.8792 59.9106 43.3885 59.8658 43.0601 60.1442Z" fill="#161616"/>
<path d="M76.8067 73.043H74.9173C74.488 73.043 74.1406 73.3904 74.1406 73.8197C74.1406 74.249 74.488 74.5964 74.9173 74.5964H76.8067C77.236 74.5964 77.5834 74.249 77.5834 73.8197C77.5834 73.3904 77.236 73.043 76.8067 73.043Z" fill="#161616"/>
<path d="M3.19076 74.5964H5.5823C6.01161 74.5964 6.359 74.249 6.359 73.8197C6.359 73.3904 6.01161 73.043 5.5823 73.043H3.19076C2.76145 73.043 2.41406 73.3904 2.41406 73.8197C2.41406 74.249 2.76145 74.5964 3.19076 74.5964Z" fill="#161616"/>
<path d="M23.888 70.5611C25.4779 70.5611 26.7711 69.2747 26.7711 67.6932C26.7711 66.1178 25.4779 64.8359 23.888 64.8359C22.3043 64.8359 21.0156 66.1178 21.0156 67.6932C21.0156 69.2747 22.3043 70.5611 23.888 70.5611ZM23.888 66.3893C24.6215 66.3893 25.2177 66.9741 25.2177 67.6932C25.2177 68.4183 24.6215 69.0077 23.888 69.0077C23.1606 69.0077 22.569 68.4183 22.569 67.6932C22.569 66.9741 23.1606 66.3893 23.888 66.3893Z" fill="#161616"/>
<path d="M21.7013 18.9691C19.8286 18.1272 17.6381 18.9001 16.7157 20.7265L9.01321 35.9859C6.53193 40.8993 6.10888 46.7661 8.15004 52.1692L11.4107 60.8031H10.4832C9.37653 60.8031 8.47619 61.7035 8.47619 62.8109V72.5924C8.47619 72.7535 8.50028 72.9081 8.53626 73.0583C8.13539 73.0892 7.81706 73.4146 7.81706 73.8235C7.81706 74.2528 8.16445 74.6002 8.59376 74.6002H72.2391C72.6684 74.6002 73.0158 74.2528 73.0158 73.8235C73.0158 73.3941 72.6684 73.0468 72.2391 73.0468H71.682C71.7162 72.9002 71.7385 72.7492 71.7385 72.5924V62.8109C71.7385 61.7035 70.8382 60.8031 69.7307 60.8031H68.804L72.0646 52.1692C72.9263 49.8869 73.3632 47.4946 73.3632 45.059C73.3632 41.9249 72.6161 38.7871 71.2015 35.9859L63.499 20.7265C62.5766 18.8986 60.3853 18.1264 58.5126 18.9691C56.605 19.8269 55.7456 22.0721 56.5966 23.9729L62.0662 36.256C61.8067 36.2013 61.5375 36.1725 61.2621 36.1725C59.1194 36.1725 57.3756 37.9064 57.3756 40.0378V47.2071C57.3756 49.4265 56.7908 51.6185 55.6849 53.5474C54.4433 55.7106 53.7872 58.1704 53.7872 60.6613V60.8031H52.2497C51.1431 60.8031 50.2427 61.7035 50.2427 62.8109V72.5924C50.2427 72.7492 50.2651 72.9002 50.2992 73.0468H40.8973V42.1207L44.7472 40.0276C45.5938 40.1649 46.4117 40.2434 47.1883 40.2434C49.6496 40.2434 51.7362 39.5562 53.3131 38.2106C55.3338 36.485 56.3661 33.762 56.3001 30.3344C56.2872 29.6798 55.9952 29.0563 55.4991 28.6255C54.9962 28.1878 54.3325 27.9823 53.6666 28.0627C47.2162 28.8354 43.9193 32.4364 43.8418 38.7512L40.8973 40.3521V30.1902C46.7793 29.7864 51.4449 24.8852 51.4449 18.9023C51.4449 12.6561 46.363 7.57422 40.1168 7.57422C33.8706 7.57422 28.7887 12.6561 28.7887 18.9023C28.7887 24.8876 33.4584 29.7904 39.3439 30.1906V44.1041L36.3728 42.4887C36.2954 36.1737 32.9986 32.5725 26.5473 31.7998C25.8852 31.7239 25.2169 31.9257 24.7148 32.3634C24.2188 32.7942 23.9275 33.4169 23.9146 34.0715C23.7919 40.4468 27.4678 43.9805 33.0256 43.9805C33.8021 43.9805 34.6204 43.902 35.4669 43.7647L39.3439 45.8727V73.0468H29.9155C29.9496 72.9002 29.9719 72.7492 29.9719 72.5924V62.8109C29.9719 61.7035 29.0716 60.8031 27.9642 60.8031H26.4275V60.6613C26.4275 58.1719 25.7714 55.7121 24.5297 53.5481C23.4239 51.6185 22.8391 49.4265 22.8391 47.2071V40.0378C22.8391 37.5931 20.5741 35.7516 18.1485 36.2552L23.6173 23.9744C24.4691 22.0721 23.6097 19.8269 21.7013 18.9691ZM55.3406 60.6613C55.3406 58.4412 55.9254 56.2484 57.032 54.3203C58.2729 52.1563 58.929 49.6965 58.929 47.2071V40.0378C58.929 38.7628 59.9757 37.7259 61.2621 37.7259C62.0434 37.7259 62.7367 38.1082 63.1607 38.6938C63.1743 38.7165 63.1895 38.7377 63.2047 38.7582C63.4519 39.1246 63.596 39.5653 63.596 40.0378V50.6484C63.596 51.0777 63.9434 51.4251 64.3727 51.4251C64.802 51.4251 65.1494 51.0777 65.1494 50.6484V40.0378C65.1494 39.2467 64.909 38.5102 64.4979 37.8973L58.015 23.3395C57.5129 22.2177 58.0219 20.8926 59.149 20.386C60.2655 19.8861 61.5655 20.3427 62.1124 21.4259L69.8149 36.6853C71.1203 39.271 71.8098 42.1669 71.8098 45.059C71.8098 47.3065 71.4063 49.5137 70.6114 51.62L67.145 60.7986H55.3406V60.6613ZM51.7961 62.8109C51.7961 62.5606 51.9994 62.3565 52.2497 62.3565H69.7307C69.9811 62.3565 70.1851 62.5606 70.1851 62.8109V72.5924C70.1851 72.8427 69.9811 73.0468 69.7307 73.0468H52.2497C51.9994 73.0468 51.7961 72.8427 51.7961 72.5924V62.8109ZM53.8517 29.6055C54.083 29.5797 54.3083 29.6479 54.4797 29.7974C54.6473 29.9438 54.7429 30.1448 54.7467 30.3647C54.8043 33.3115 53.9594 35.6158 52.3043 37.0289C50.6614 38.4313 48.282 38.957 45.3891 38.5625C45.5234 33.203 48.2972 30.2707 53.8517 29.6055ZM30.3421 18.9023C30.3421 13.5125 34.727 9.12762 40.1168 9.12762C45.5067 9.12762 49.8915 13.5125 49.8915 18.9023C49.8915 24.2915 45.5067 28.6763 40.1168 28.6763C34.727 28.6763 30.3421 24.2915 30.3421 18.9023ZM27.9096 40.766C26.2553 39.3536 25.4104 37.0486 25.468 34.1018C25.4718 33.8819 25.5666 33.6809 25.7342 33.5352C25.8821 33.4063 26.0718 33.3365 26.2667 33.3365C26.2986 33.3365 26.3312 33.3388 26.363 33.3426C31.9175 34.0078 34.6913 36.9401 34.8256 42.2996C31.9349 42.6941 29.5525 42.1692 27.9096 40.766ZM27.9642 62.3565C28.2145 62.3565 28.4185 62.5606 28.4185 62.8109V72.5924C28.4185 72.8427 28.2145 73.0468 27.9642 73.0468H10.4832C10.2329 73.0468 10.0296 72.8427 10.0296 72.5924V62.8109C10.0296 62.5606 10.2329 62.3565 10.4832 62.3565H27.9642ZM22.1989 23.3403L15.7175 37.8966C15.3057 38.5102 15.0652 39.2467 15.0652 40.0378V50.6484C15.0652 51.0777 15.4126 51.4251 15.8419 51.4251C16.2712 51.4251 16.6186 51.0777 16.6186 50.6484V40.0378C16.6186 39.5653 16.7628 39.1253 17.0085 38.759C17.0252 38.7377 17.0411 38.7158 17.0555 38.693C17.4788 38.1074 18.1713 37.7259 18.9518 37.7259C20.2389 37.7259 21.2857 38.7628 21.2857 40.0378V47.2071C21.2857 49.6965 21.9418 52.1563 23.1827 54.321C24.2893 56.2499 24.8741 58.4427 24.8741 60.6613V60.7986H13.0696L9.60332 51.62C7.72334 46.6437 8.10529 41.2302 10.3997 36.6853L18.1023 21.4259C18.6491 20.3427 19.95 19.8854 21.0649 20.386C22.1928 20.8934 22.7018 22.2177 22.1989 23.3403Z" fill="#161616"/>
<path d="M57.1065 70.5611C58.6902 70.5611 59.9781 69.2747 59.9781 67.6932C59.9781 66.1178 58.6902 64.8359 57.1065 64.8359C55.5166 64.8359 54.2227 66.1178 54.2227 67.6932C54.2227 69.2747 55.5166 70.5611 57.1065 70.5611ZM57.1065 66.3893C57.8331 66.3893 58.4247 66.9741 58.4247 67.6932C58.4247 68.4183 57.8331 69.0077 57.1065 69.0077C56.373 69.0077 55.7761 68.4183 55.7761 67.6932C55.7761 66.9741 56.373 66.3893 57.1065 66.3893Z" fill="#161616"/>
<path d="M40.4424 26.0672C40.5167 25.9983 40.5527 25.9096 40.5527 25.7957L40.5528 24.5974C40.7488 24.5636 41.6188 24.5445 42.4961 24.1134C43.0555 23.8395 43.4938 23.4729 43.7994 23.0239C44.1065 22.5752 44.2622 22.0579 44.2622 21.4867C44.2623 20.7894 44.085 20.2238 43.7354 19.8058C43.3865 19.388 42.9533 19.0697 42.4473 18.8588C42.0112 18.6771 41.4677 18.5046 40.8327 18.3456L40.553 18.276L40.5531 14.5579L40.9481 14.5861C41.6069 14.6327 42.2542 14.7678 42.8835 14.992C43.0126 15.0428 43.1265 15.0684 43.2216 15.0684C43.3715 15.0684 43.489 15.005 43.6253 14.8519C43.7457 14.7141 43.8041 14.5614 43.8041 14.3843C43.8041 14.0581 43.6505 13.8383 43.3456 13.7295C42.5902 13.453 41.7663 13.2832 40.8977 13.2248L40.5532 13.2014V12.017C40.5532 11.9042 40.5164 11.8123 40.4429 11.7381C40.3759 11.6714 40.2749 11.6328 40.1661 11.6328C40.0558 11.6328 39.9556 11.6721 39.8944 11.7388C39.8266 11.813 39.792 11.9067 39.792 12.017L39.7919 13.2158L39.4625 13.2511C38.8224 13.3199 38.258 13.4813 37.7858 13.7307C37.2272 14.0251 36.799 14.4158 36.5128 14.8919C36.2281 15.3673 36.0832 15.8975 36.0832 16.4673C36.0831 17.1243 36.2605 17.6635 36.6107 18.0704C36.9582 18.477 37.3914 18.7928 37.8974 19.0082C38.3357 19.1958 38.8821 19.3799 39.5207 19.5559L39.7917 19.6304L39.7916 23.2057L39.3944 23.1755C38.5049 23.1073 37.6832 22.908 36.9551 22.5832C36.86 22.5415 36.754 22.5195 36.6488 22.5195C36.4585 22.5194 36.2812 22.5904 36.1615 22.7169C36.0361 22.8467 35.9727 23.0063 35.9727 23.1912C35.9727 23.3357 36.0152 23.4615 36.1038 23.5772C36.1903 23.6908 36.2984 23.7751 36.4296 23.8296C37.3617 24.235 38.378 24.4834 39.4514 24.5678L39.7916 24.5945L39.7915 25.7957C39.7915 25.9071 39.8261 25.9976 39.8968 26.0674C39.9616 26.1341 40.0517 26.1677 40.1642 26.1677C40.2759 26.1677 40.3704 26.1334 40.4424 26.0672ZM40.5529 19.8046L41.0315 19.953C41.5354 20.1095 41.9376 20.2771 42.2267 20.4509C42.6065 20.6794 42.7911 20.9871 42.7911 21.3922C42.791 22.3632 42.1812 22.9488 40.9774 23.1323L40.5528 23.1971L40.5529 19.8046ZM39.7918 18.1055L39.3132 17.9573C38.8187 17.8041 38.4193 17.6304 38.1252 17.4404C37.7461 17.1932 37.5544 16.8285 37.5544 16.3571C37.5544 15.8557 37.7577 15.4625 38.1758 15.1555C38.4893 14.9234 38.8851 14.7587 39.3508 14.6664L39.7919 14.5788L39.7918 18.1055Z" fill="#161616"/>
</svg>
