<svg width="240" height="120" viewBox="0 0 240 120" fill="none" xmlns="http://www.w3.org/2000/svg">
<path fill-rule="evenodd" clip-rule="evenodd" d="M61.4862 40H43V80H61.4862V74.2857C69.3398 74.2857 75.7064 67.8897 75.7064 60C75.7064 52.1102 69.3398 45.7143 61.4862 45.7143V40ZM61.4862 45.7143C53.6326 45.7143 47.2661 52.1102 47.2661 60C47.2661 67.8897 53.6326 74.2857 61.4862 74.2857V45.7143Z" fill="#D1D1D1"/>
<path d="M90.0879 65.8019C90.0708 65.8876 90.0538 65.9733 90.0367 66.059C90.0367 66.1276 90.0367 66.2048 90.0367 66.2905L89.8831 66.8305C89.849 66.899 89.8234 66.9419 89.8063 66.959L89.7296 67.1133C89.6442 67.3019 89.4907 67.4562 89.2688 67.5762C88.8593 67.7819 88.4241 67.8333 87.9634 67.7305C87.6733 67.6962 87.443 67.6105 87.2723 67.4733C87.1017 67.3533 86.9822 67.2076 86.914 67.0362C86.8457 66.8648 86.7945 66.6933 86.7604 66.5219C86.7092 66.3505 86.6836 66.1962 86.6836 66.059V51.659C86.6836 51.539 86.6836 51.4362 86.6836 51.3505C86.7007 51.2476 86.7177 51.1533 86.7348 51.0676C86.7519 50.9476 86.7689 50.8448 86.786 50.759C86.8201 50.6733 86.8542 50.579 86.8884 50.4762C86.9396 50.3048 87.0334 50.1676 87.1699 50.0648C87.3747 49.9105 87.5709 49.8248 87.7586 49.8076C87.8781 49.7733 87.989 49.7562 88.0914 49.7562C88.1938 49.739 88.3132 49.7305 88.4497 49.7305C88.6886 49.7305 88.9617 49.799 89.2688 49.9362C89.5077 50.0733 89.6784 50.2619 89.7807 50.5019C89.9514 50.8448 90.0367 51.1619 90.0367 51.4533C90.0538 51.6248 90.0623 51.8819 90.0623 52.2248C90.0794 52.5676 90.0879 52.8248 90.0879 52.9962V53.099C90.122 53.6476 90.1391 54.179 90.1391 54.6933C90.1391 55.1905 90.1306 55.739 90.1135 56.339C90.1135 56.9219 90.105 57.4876 90.0879 58.0362C90.0879 58.5676 90.0879 59.099 90.0879 59.6305V65.0305C90.0879 65.099 90.0879 65.1676 90.0879 65.2362C90.105 65.2876 90.1135 65.3476 90.1135 65.4162C90.1135 65.5876 90.105 65.7162 90.0879 65.8019ZM96.2526 56.2362C96.8158 55.9619 97.4045 55.7648 98.0188 55.6448C98.6331 55.5248 99.2389 55.499 99.8361 55.5676C100.45 55.6362 101.039 55.799 101.602 56.0562C102.182 56.3133 102.711 56.6733 103.189 57.1362C103.582 57.5305 103.923 58.0105 104.213 58.5762C104.503 59.1248 104.716 59.6648 104.853 60.1962C105.143 61.139 105.186 62.0905 104.981 63.0505C104.776 64.0105 104.426 64.9019 103.932 65.7248C103.693 66.1019 103.394 66.4448 103.036 66.7533C102.694 67.0448 102.328 67.2848 101.935 67.4733C101.423 67.7133 100.869 67.8762 100.271 67.9619C99.674 68.0648 99.0938 68.0905 98.5307 68.039C97.5069 67.9876 96.6025 67.7305 95.8175 67.2676C95.0496 66.8048 94.4268 66.2133 93.949 65.4933C93.4882 64.7733 93.1811 63.959 93.0275 63.0505C92.891 62.1248 92.9507 61.1819 93.2067 60.2219C93.4797 59.1933 93.8722 58.3619 94.3841 57.7276C94.9131 57.0762 95.5359 56.579 96.2526 56.2362ZM97.0205 59.6819C96.7646 59.9219 96.5683 60.2219 96.4318 60.5819C96.2953 60.9419 96.21 61.319 96.1758 61.7133C96.1417 62.0905 96.1673 62.4762 96.2526 62.8705C96.355 63.2476 96.5086 63.5905 96.7134 63.899C96.884 64.1562 97.1912 64.3705 97.6348 64.5419C98.0785 64.7133 98.5392 64.8162 99.017 64.8505C99.5631 64.8848 100.041 64.739 100.45 64.4133C100.86 64.0705 101.167 63.6505 101.372 63.1533C101.594 62.6562 101.696 62.1162 101.679 61.5333C101.662 60.9505 101.508 60.419 101.218 59.939C101.014 59.5962 100.723 59.3476 100.348 59.1933C99.9897 59.0219 99.6058 58.9362 99.1962 58.9362C98.8037 58.919 98.4113 58.979 98.0188 59.1162C97.6263 59.2362 97.2936 59.4248 97.0205 59.6819ZM118.539 62.999C118.539 63.5476 118.522 64.139 118.488 64.7733C118.471 65.4076 118.445 65.999 118.411 66.5476C118.411 67.0619 118.386 67.5762 118.334 68.0905C118.3 68.5362 118.232 69.0162 118.13 69.5305C118.027 70.0619 117.882 70.5505 117.694 70.9962C117.456 71.579 117.131 72.0762 116.722 72.4876C116.312 72.9162 115.783 73.2248 115.135 73.4133C114.589 73.5505 114.077 73.6362 113.599 73.6705C113.121 73.7219 112.609 73.7133 112.063 73.6448C111.705 73.5933 111.321 73.4905 110.911 73.3362C110.502 73.199 110.118 73.019 109.76 72.7962C109.401 72.5733 109.086 72.3076 108.812 71.999C108.539 71.7076 108.352 71.3733 108.249 70.9962C108.13 70.5333 108.121 70.1305 108.224 69.7876C108.343 69.4448 108.522 69.1962 108.761 69.0419C109 68.8876 109.282 68.8619 109.606 68.9648C109.93 69.0676 110.237 69.3333 110.527 69.7619C110.732 70.0705 111.031 70.319 111.423 70.5076C111.816 70.6962 112.234 70.8076 112.678 70.8419C113.121 70.8762 113.548 70.8162 113.957 70.6619C114.384 70.5248 114.717 70.2762 114.956 69.9162C115.126 69.659 115.246 69.2905 115.314 68.8105C115.399 68.3305 115.45 67.859 115.468 67.3962C114.597 67.7562 113.701 67.8933 112.78 67.8076C111.876 67.7048 111.048 67.4219 110.297 66.959C109.563 66.479 108.966 65.8448 108.505 65.0562C108.062 64.2505 107.874 63.3419 107.942 62.3305C107.993 61.4562 108.173 60.6333 108.48 59.8619C108.804 59.0905 109.333 58.4476 110.067 57.9333C110.664 57.5219 111.338 57.2562 112.089 57.1362C112.84 56.999 113.565 56.9305 114.264 56.9305C114.674 56.9305 115.075 56.9305 115.468 56.9305C115.877 56.9305 116.252 56.9819 116.594 57.0848C116.935 57.1876 117.242 57.359 117.515 57.599C117.788 57.839 117.993 58.1905 118.13 58.6533C118.351 59.3733 118.471 60.0848 118.488 60.7876C118.522 61.4905 118.539 62.2276 118.539 62.999ZM113.599 65.1333C113.77 65.1333 113.932 65.1162 114.085 65.0819C114.256 65.0476 114.418 65.0048 114.572 64.9533C114.862 64.8505 115.075 64.7133 115.212 64.5419C115.365 64.3705 115.468 64.1819 115.519 63.9762C115.57 63.7533 115.587 63.5133 115.57 63.2562C115.57 62.999 115.57 62.7333 115.57 62.459C115.57 62.2362 115.561 61.9876 115.544 61.7133C115.544 61.439 115.527 61.1819 115.493 60.9419C115.459 60.6848 115.408 60.4619 115.34 60.2733C115.271 60.0848 115.169 59.9648 115.032 59.9133C114.793 59.8448 114.52 59.8019 114.213 59.7848C113.906 59.7505 113.599 59.7505 113.292 59.7848C112.985 59.8019 112.686 59.8619 112.396 59.9648C112.123 60.0505 111.893 60.1705 111.705 60.3248C111.449 60.5476 111.253 60.8219 111.116 61.1476C110.98 61.4733 110.894 61.8162 110.86 62.1762C110.843 62.5362 110.869 62.8876 110.937 63.2305C111.022 63.5733 111.167 63.8819 111.372 64.1562C111.611 64.499 111.935 64.7476 112.345 64.9019C112.754 65.0562 113.172 65.1333 113.599 65.1333ZM124.685 56.2362C125.248 55.9619 125.836 55.7648 126.451 55.6448C127.065 55.5248 127.671 55.499 128.268 55.5676C128.882 55.6362 129.471 55.799 130.034 56.0562C130.614 56.3133 131.143 56.6733 131.621 57.1362C132.014 57.5305 132.355 58.0105 132.645 58.5762C132.935 59.1248 133.148 59.6648 133.285 60.1962C133.575 61.139 133.618 62.0905 133.413 63.0505C133.208 64.0105 132.858 64.9019 132.364 65.7248C132.125 66.1019 131.826 66.4448 131.468 66.7533C131.126 67.0448 130.759 67.2848 130.367 67.4733C129.855 67.7133 129.3 67.8762 128.703 67.9619C128.106 68.0648 127.526 68.0905 126.963 68.039C125.939 67.9876 125.034 67.7305 124.249 67.2676C123.482 66.8048 122.859 66.2133 122.381 65.4933C121.92 64.7733 121.613 63.959 121.459 63.0505C121.323 62.1248 121.383 61.1819 121.639 60.2219C121.912 59.1933 122.304 58.3619 122.816 57.7276C123.345 57.0762 123.968 56.579 124.685 56.2362ZM125.453 59.6819C125.197 59.9219 125 60.2219 124.864 60.5819C124.727 60.9419 124.642 61.319 124.608 61.7133C124.574 62.0905 124.599 62.4762 124.685 62.8705C124.787 63.2476 124.941 63.5905 125.145 63.899C125.316 64.1562 125.623 64.3705 126.067 64.5419C126.51 64.7133 126.971 64.8162 127.449 64.8505C127.995 64.8848 128.473 64.739 128.882 64.4133C129.292 64.0705 129.599 63.6505 129.804 63.1533C130.026 62.6562 130.128 62.1162 130.111 61.5333C130.094 60.9505 129.94 60.419 129.65 59.939C129.446 59.5962 129.155 59.3476 128.78 59.1933C128.422 59.0219 128.038 58.9362 127.628 58.9362C127.236 58.919 126.843 58.979 126.451 59.1162C126.058 59.2362 125.726 59.4248 125.453 59.6819ZM139.849 58.1133C139.849 58.5933 139.849 59.1333 139.849 59.7333C139.866 60.3333 139.874 60.959 139.874 61.6105C139.874 62.2448 139.874 62.879 139.874 63.5133C139.874 64.1305 139.866 64.7048 139.849 65.2362C139.832 65.4933 139.806 65.7762 139.772 66.0848C139.738 66.3762 139.669 66.6505 139.567 66.9076C139.465 67.1648 139.303 67.379 139.081 67.5505C138.876 67.7048 138.594 67.7733 138.236 67.7562C137.707 67.7219 137.323 67.4905 137.084 67.0619C136.862 66.6333 136.734 66.0333 136.7 65.2619C136.7 64.8676 136.692 64.4133 136.675 63.899C136.675 63.3848 136.666 62.8619 136.649 62.3305C136.649 61.799 136.649 61.2848 136.649 60.7876C136.649 60.2733 136.649 59.8105 136.649 59.399C136.649 59.159 136.641 58.8676 136.623 58.5248C136.623 58.1819 136.632 57.8305 136.649 57.4705C136.666 57.1105 136.709 56.7676 136.777 56.4419C136.845 56.099 136.956 55.8162 137.11 55.5933C137.229 55.4562 137.4 55.3533 137.622 55.2848C137.844 55.199 138.074 55.1562 138.313 55.1562C138.569 55.1562 138.808 55.199 139.03 55.2848C139.268 55.3705 139.439 55.4905 139.541 55.6448C139.61 55.7476 139.661 55.8933 139.695 56.0819C139.729 56.2705 139.755 56.4848 139.772 56.7248C139.806 56.9476 139.823 57.1876 139.823 57.4448C139.84 57.6848 139.849 57.9076 139.849 58.1133ZM138.876 52.919C138.347 53.0562 137.903 53.0048 137.545 52.7648C137.204 52.5076 136.99 52.1305 136.905 51.6333C136.837 51.2733 136.862 50.9562 136.982 50.6819C137.101 50.4076 137.28 50.2019 137.519 50.0648C137.758 49.9105 138.031 49.8419 138.338 49.859C138.646 49.8762 138.953 49.9962 139.26 50.219C139.55 50.4248 139.755 50.6648 139.874 50.939C140.011 51.2133 140.053 51.479 140.002 51.7362C139.968 51.9933 139.857 52.2333 139.669 52.4562C139.482 52.6619 139.217 52.8162 138.876 52.919ZM150.033 56.2876C150.527 56.4933 150.98 56.7933 151.389 57.1876C151.799 57.5648 152.148 58.0019 152.439 58.499C152.746 58.9962 152.976 59.5362 153.13 60.119C153.3 60.6848 153.386 61.259 153.386 61.8419C153.403 62.7162 153.198 63.539 152.771 64.3105C152.362 65.0819 151.688 65.6733 150.749 66.0848C150.033 66.3762 149.29 66.599 148.522 66.7533C147.772 66.8905 146.987 66.9848 146.167 67.0362V71.7419C146.167 71.8448 146.15 71.939 146.116 72.0248C146.099 72.1105 146.091 72.1962 146.091 72.2819C146.057 72.4533 146.014 72.6076 145.963 72.7448C145.929 72.8819 145.877 73.0276 145.809 73.1819C145.741 73.2848 145.673 73.379 145.604 73.4648C145.536 73.5505 145.459 73.6362 145.374 73.7219C144.964 73.9276 144.538 73.9705 144.094 73.8505C143.821 73.8333 143.599 73.7476 143.429 73.5933C143.275 73.439 143.164 73.2762 143.096 73.1048C143.028 72.9333 142.968 72.7362 142.917 72.5133C142.9 72.4276 142.883 72.3419 142.866 72.2562C142.866 72.1876 142.866 72.1105 142.866 72.0248V57.7019C142.866 57.599 142.866 57.4962 142.866 57.3933C142.883 57.2733 142.9 57.1533 142.917 57.0333C142.934 56.8276 142.985 56.6219 143.07 56.4162C143.224 55.9876 143.54 55.6962 144.017 55.5419C144.495 55.3876 145.033 55.319 145.63 55.3362C146.039 55.3533 146.458 55.3962 146.884 55.4648C147.328 55.5333 147.746 55.619 148.138 55.7219C148.548 55.8076 148.915 55.9019 149.239 56.0048C149.563 56.1076 149.828 56.2019 150.033 56.2876ZM150.084 61.8419C150.152 61.3619 150.092 60.959 149.905 60.6333C149.734 60.2905 149.486 60.0162 149.162 59.8105C148.838 59.5876 148.463 59.4162 148.036 59.2962C147.626 59.1762 147.217 59.0905 146.807 59.039C146.756 59.0219 146.671 59.0133 146.551 59.0133C146.449 59.0133 146.33 59.0133 146.193 59.0133C146.193 59.5619 146.193 60.0933 146.193 60.6076C146.21 61.1048 146.21 61.6448 146.193 62.2276V63.9505C146.586 63.9333 146.995 63.8905 147.422 63.8219C147.865 63.7533 148.275 63.6419 148.65 63.4876C149.026 63.3333 149.341 63.1276 149.597 62.8705C149.87 62.6133 150.033 62.2705 150.084 61.8419ZM162.349 63.3333C162.025 63.1276 161.658 62.9648 161.249 62.8448C160.856 62.7248 160.447 62.6133 160.02 62.5105C159.61 62.4076 159.209 62.2962 158.817 62.1762C158.424 62.039 158.066 61.8505 157.742 61.6105C157.042 61.079 156.633 60.4276 156.513 59.6562C156.411 58.8676 156.581 58.079 157.025 57.2905C157.264 56.879 157.58 56.5448 157.972 56.2876C158.365 56.0133 158.791 55.8076 159.252 55.6705C159.73 55.5162 160.216 55.4305 160.711 55.4133C161.206 55.3962 161.675 55.4219 162.119 55.4905C162.409 55.5419 162.716 55.619 163.04 55.7219C163.365 55.8076 163.663 55.9276 163.936 56.0819C164.226 56.2362 164.482 56.4333 164.704 56.6733C164.943 56.8962 165.114 57.179 165.216 57.5219C165.284 57.7448 165.293 57.959 165.242 58.1648C165.207 58.3705 165.122 58.5419 164.986 58.679C164.866 58.8162 164.704 58.919 164.499 58.9876C164.312 59.0562 164.107 59.0733 163.885 59.039C163.629 58.9876 163.39 58.9105 163.168 58.8076C162.946 58.7048 162.725 58.5933 162.503 58.4733C162.281 58.3533 162.051 58.2505 161.812 58.1648C161.59 58.079 161.351 58.0362 161.095 58.0362C160.702 58.019 160.378 58.0876 160.122 58.2419C159.866 58.3962 159.687 58.5848 159.585 58.8076C159.499 59.0305 159.508 59.2705 159.61 59.5276C159.73 59.7848 159.969 60.0076 160.327 60.1962C160.651 60.3676 161.01 60.5048 161.402 60.6076C161.795 60.7105 162.179 60.8133 162.554 60.9162C162.946 61.019 163.322 61.139 163.68 61.2762C164.056 61.4133 164.388 61.6019 164.678 61.8419C165.242 62.3048 165.583 62.8448 165.702 63.4619C165.839 64.079 165.805 64.6876 165.6 65.2876C165.395 65.8876 165.037 66.419 164.525 66.8819C164.03 67.3448 163.441 67.6533 162.759 67.8076C162.264 67.9105 161.726 67.9619 161.146 67.9619C160.583 67.9619 160.02 67.9019 159.457 67.7819C158.911 67.6619 158.382 67.4733 157.87 67.2162C157.375 66.959 156.957 66.6333 156.616 66.239C156.377 65.9648 156.249 65.6562 156.232 65.3133C156.232 64.9533 156.3 64.6448 156.436 64.3876C156.59 64.1133 156.803 63.9248 157.076 63.8219C157.349 63.719 157.657 63.779 157.998 64.0019C158.271 64.1905 158.595 64.379 158.97 64.5676C159.346 64.739 159.721 64.8762 160.097 64.979C160.472 65.0819 160.83 65.1333 161.172 65.1333C161.53 65.1333 161.837 65.0562 162.093 64.9019C162.469 64.6619 162.665 64.3876 162.682 64.079C162.699 63.7533 162.588 63.5048 162.349 63.3333ZM179.143 61.739C179.109 62.3048 179.075 62.879 179.041 63.4619C179.006 64.0276 178.913 64.5762 178.759 65.1076C178.622 65.639 178.401 66.119 178.093 66.5476C177.803 66.9762 177.385 67.319 176.839 67.5762C176.361 67.8162 175.85 67.979 175.303 68.0648C174.757 68.1676 174.211 68.2105 173.665 68.1933C173.119 68.1762 172.59 68.0905 172.078 67.9362C171.566 67.799 171.106 67.6019 170.696 67.3448C170.287 67.0876 169.954 66.7533 169.698 66.3419C169.442 65.9305 169.237 65.4848 169.084 65.0048C168.947 64.5248 168.853 64.0276 168.802 63.5133C168.751 62.999 168.717 62.519 168.7 62.0733C168.631 60.8905 168.631 59.7248 168.7 58.5762C168.7 58.3533 168.7 58.1048 168.7 57.8305C168.7 57.539 168.717 57.2562 168.751 56.9819C168.802 56.7076 168.879 56.459 168.981 56.2362C169.084 55.9962 169.254 55.8162 169.493 55.6962C170.005 55.4219 170.474 55.4048 170.901 55.6448C171.345 55.8848 171.609 56.3819 171.694 57.1362C171.746 57.5305 171.763 57.9676 171.746 58.4476C171.746 58.9276 171.763 59.3648 171.797 59.759C171.814 60.3419 171.831 60.9762 171.848 61.6619C171.865 62.3305 171.959 62.9305 172.13 63.4619C172.317 63.9933 172.616 64.3962 173.025 64.6705C173.452 64.9276 174.083 64.9362 174.92 64.6962C175.312 64.5762 175.568 64.2762 175.687 63.7962C175.824 63.3162 175.892 62.6048 175.892 61.6619C175.892 61.2505 175.884 60.7962 175.867 60.299C175.85 59.8019 175.841 59.3133 175.841 58.8333C175.841 58.3362 175.85 57.8819 175.867 57.4705C175.901 57.0419 175.952 56.7162 176.02 56.4933C176.106 56.1848 176.285 55.9533 176.558 55.799C176.831 55.6448 177.121 55.5676 177.428 55.5676C177.735 55.5505 178.025 55.6105 178.298 55.7476C178.571 55.8848 178.759 56.1076 178.861 56.4162C178.964 56.6905 179.032 57.0419 179.066 57.4705C179.117 57.8819 179.151 58.3362 179.169 58.8333C179.186 59.3133 179.186 59.8105 179.169 60.3248C179.169 60.8219 179.16 61.2933 179.143 61.739ZM196.436 61.8676C196.471 62.4162 196.488 62.939 196.488 63.4362C196.488 63.9162 196.471 64.4305 196.436 64.979C196.436 65.1848 196.436 65.4162 196.436 65.6733C196.436 65.9305 196.419 66.179 196.385 66.419C196.351 66.659 196.291 66.8819 196.206 67.0876C196.121 67.2933 195.993 67.4562 195.822 67.5762C195.617 67.7133 195.387 67.8076 195.131 67.859C194.875 67.8933 194.636 67.8762 194.414 67.8076C194.192 67.739 193.996 67.6105 193.826 67.4219C193.672 67.2333 193.587 66.9676 193.57 66.6248C193.518 65.8362 193.493 65.0476 193.493 64.259C193.493 63.8648 193.484 63.4876 193.467 63.1276C193.467 62.7676 193.476 62.2619 193.493 61.6105C193.493 61.2848 193.467 60.9162 193.416 60.5048C193.365 60.0762 193.237 59.7762 193.032 59.6048C192.879 59.4676 192.708 59.3905 192.52 59.3733C192.332 59.339 192.145 59.3562 191.957 59.4248C191.786 59.4933 191.633 59.6219 191.496 59.8105C191.36 59.9819 191.266 60.2048 191.215 60.479C191.215 60.7019 191.206 60.9333 191.189 61.1733C191.189 61.3962 191.198 61.6105 191.215 61.8162C191.232 62.3648 191.24 62.8876 191.24 63.3848C191.24 63.8648 191.232 64.379 191.215 64.9276C191.198 65.1505 191.189 65.3905 191.189 65.6476C191.206 65.9048 191.206 66.1619 191.189 66.419C191.172 66.659 191.121 66.8819 191.036 67.0876C190.967 67.2933 190.839 67.4562 190.652 67.5762C190.447 67.7133 190.225 67.799 189.986 67.8333C189.764 67.8505 189.551 67.8162 189.346 67.7305C189.159 67.6276 188.988 67.4733 188.834 67.2676C188.698 67.0619 188.621 66.7876 188.604 66.4448C188.57 66.0505 188.544 65.6905 188.527 65.3648C188.527 65.0219 188.527 64.6619 188.527 64.2848C188.527 63.8905 188.536 63.4876 188.553 63.0762C188.57 62.6476 188.561 62.2362 188.527 61.8419C188.527 61.7219 188.519 61.5848 188.502 61.4305C188.502 61.259 188.493 61.0876 188.476 60.9162C188.476 60.7448 188.459 60.5819 188.425 60.4276C188.408 60.2562 188.374 60.119 188.322 60.0162C188.186 59.7762 187.938 59.6219 187.58 59.5533C187.239 59.4848 186.949 59.5105 186.71 59.6305C186.471 59.7505 186.292 59.9048 186.172 60.0933C186.053 60.2819 185.967 60.4876 185.916 60.7105C185.865 60.9333 185.84 61.1733 185.84 61.4305C185.84 61.6705 185.84 61.9019 185.84 62.1248C185.84 63.239 185.84 64.2076 185.84 65.0305C185.857 65.8362 185.771 66.4876 185.584 66.9848C185.498 67.2419 185.319 67.439 185.047 67.5762C184.791 67.7133 184.509 67.7819 184.202 67.7819C183.912 67.7819 183.639 67.7133 183.383 67.5762C183.127 67.439 182.956 67.2248 182.871 66.9333C182.82 66.7448 182.769 66.479 182.717 66.1362C182.683 65.7762 182.658 65.3819 182.641 64.9533C182.624 64.5248 182.615 64.0962 182.615 63.6676C182.615 63.2219 182.615 62.819 182.615 62.459V58.7562C182.598 58.3619 182.589 57.9333 182.589 57.4705C182.589 57.0076 182.658 56.5876 182.794 56.2105C182.914 55.8848 183.101 55.679 183.357 55.5933C183.613 55.4905 183.878 55.4476 184.151 55.4648C184.458 55.4648 184.697 55.5505 184.868 55.7219C185.055 55.8762 185.192 56.0733 185.276 56.3133C185.362 56.5362 185.413 56.7933 185.43 57.0848C185.447 57.359 185.464 57.6248 185.481 57.8819C185.669 57.4533 185.891 57.1019 186.147 56.8276C186.42 56.5362 186.804 56.3476 187.299 56.2619C188.561 56.0219 189.568 56.3476 190.319 57.239C190.66 56.8962 191.095 56.6133 191.624 56.3905C192.034 56.2362 192.452 56.1676 192.879 56.1848C193.305 56.1848 193.706 56.2619 194.082 56.4162C194.474 56.5705 194.824 56.7933 195.131 57.0848C195.455 57.3762 195.711 57.7276 195.899 58.139C196.155 58.6876 196.3 59.2962 196.334 59.9648C196.368 60.6333 196.402 61.2676 196.436 61.8676Z" fill="#D1D1D1"/>
</svg>
